<?xml version="1.0" encoding="iso-8859-1"?>
<svg xmlns="http://www.w3.org/2000/svg" xmlns:xlink="http://www.w3.org/1999/xlink" width="12px" height="16px"><path fill-rule="evenodd"  fill="rgb(214, 141, 255)"
 d="M5.374,-0.000 C8.890,-0.066 10.936,3.179 8.845,5.943 C8.126,6.893 5.809,7.642 4.269,6.857 C3.362,6.395 2.688,5.558 2.376,4.724 C2.121,2.925 2.505,1.454 3.796,0.609 C4.142,0.383 4.465,0.417 4.743,0.152 C5.114,0.129 5.188,0.138 5.374,-0.000 ZM12.000,16.000 C8.004,16.000 4.006,16.000 0.010,16.000 C0.024,15.704 -0.016,15.636 0.010,15.238 C-0.017,14.561 0.068,13.524 0.325,12.800 C0.840,11.350 1.891,9.877 3.165,9.143 C3.909,8.714 5.494,8.498 6.320,8.686 C6.899,8.736 7.477,8.787 8.056,8.838 C10.588,9.778 12.048,12.565 12.000,16.000 Z"/>
</svg>
