<svg xmlns="http://www.w3.org/2000/svg" width="18" height="18"><path fill-rule="evenodd" fill="#D68DFF" d="M17.894 9.824l-.016-.01-1.266.607c-.48.131-.977.375-1.162.77l-.366.787c-.184.395.055.953.303 1.365l.475 1.115a.778.778 0 0 1-.219.627l-.614.614a.596.596 0 0 1-.394.181l-1.32-.465c-.432-.246-.956-.426-1.366-.276l-.816.297c-.409.149-.634.713-.75 1.18l-.423 1.049c-.132.198-.304.335-.565.335h-.869a.752.752 0 0 1-.514-.204l-.565-1.19c-.131-.483-.375-.985-.769-1.17l-.787-.369c-.395-.186-.952.055-1.363.305l-1.035.444c-.211.031-.409-.004-.578-.173l-.614-.614c-.183-.183-.241-.418-.215-.664l.261-.732.244-.538-.009-.015c.182-.381.287-.802.164-1.142l-.295-.818c-.148-.41-.712-.633-1.18-.748L.224 9.954A.612.612 0 0 1 0 9.474v-.869c0-.436.353-.725.789-.868l.803-.301c.007-.034.016-.067.024-.101.359-.142.682-.355.823-.655l.369-.786c.186-.395-.055-.952-.306-1.364l-.308-.718c-.104-.309-.131-.603.107-.841l.614-.614c.223-.223.521-.26.824-.187l.294.105.054.026.79.359a.695.695 0 0 1 .036-.022c.348.148.719.221 1.025.11l.817-.294c.411-.149.634-.713.748-1.181l.36-.9C8.022.149 8.243 0 8.526 0h.869c.308 0 .492.19.632.446l.109.228.048.115.299.683c.14.408.367.795.705.952l.787.367c.395.184.953-.055 1.365-.304l.891-.379c.294-.065.582-.023.798.193l.614.614a.61.61 0 0 1 .183.473l-.413 1.173c-.247.431-.426.956-.277 1.365l.297.816c.137.375.621.595 1.06.719l.002.007.715.269.066.023.1.04c.356.158.624.426.624.805v.869a.595.595 0 0 1-.106.35zM8.921 4.5a4.5 4.5 0 1 0 0 9 4.5 4.5 0 0 0 0-9z"/></svg>